<svg xmlns="http://www.w3.org/2000/svg" width="300" height="150"><text style="line-height:125%" x="61.857" y="991.434" font-weight="400" font-size="40" font-family="sans-serif" letter-spacing="0" word-spacing="0" transform="translate(0 -902.362)"><tspan x="61.857" y="991.434" font-size="35">C</tspan></text><text style="line-height:125%" x="59.714" y="1044.862" font-weight="400" font-size="40" font-family="sans-serif" letter-spacing="0" word-spacing="0" transform="translate(0 -902.362)"><tspan x="59.714" y="1044.862">H</tspan></text><text y="995.005" x="1.143" style="line-height:125%" font-weight="400" font-size="40" font-family="sans-serif" letter-spacing="0" word-spacing="0" transform="translate(0 -902.362)"><tspan y="995.005" x="1.143">H</tspan></text><text style="line-height:125%" x="59.786" y="939.791" font-weight="400" font-size="40" font-family="sans-serif" letter-spacing="0" word-spacing="0" transform="translate(0 -902.362)"><tspan x="59.786" y="939.791">H</tspan></text><path d="M32.143 78h22.143" fill="none" stroke="#000" stroke-width="2"/><path d="M95.357 78H117.5" fill="none" stroke="#000" stroke-width="2"/><path d="M75.071 39.643v16.786" fill="none" stroke="#000" stroke-width="2.116"/><path d="M75.071 94.286v16.785" fill="none" stroke="#000" stroke-width="2.116"/><path d="M95.357 78H117.5" fill="none" stroke="#000" stroke-width="2"/><text y="982.862" x="129.143" style="line-height:125%" font-weight="400" font-size="40" font-family="sans-serif" letter-spacing="0" word-spacing="0" transform="translate(0 -902.362)"><tspan y="982.862" x="129.143" font-size="35">...</tspan></text><path d="M95.857 78H118" fill="none" stroke="#000" stroke-width="2"/><path d="M171.071 78h22.143" fill="none" stroke="#000" stroke-width="2"/><path d="M171.071 78h22.143" fill="none" stroke="#000" stroke-width="2"/><text style="line-height:125%" x="202.714" y="991.434" font-weight="400" font-size="40" font-family="sans-serif" letter-spacing="0" word-spacing="0" transform="translate(0 -902.362)"><tspan x="202.714" y="991.434" font-size="35">C</tspan></text><text style="line-height:125%" x="200.571" y="1044.862" font-weight="400" font-size="40" font-family="sans-serif" letter-spacing="0" word-spacing="0" transform="translate(0 -902.362)"><tspan x="200.571" y="1044.862">H</tspan></text><text style="line-height:125%" x="200.643" y="939.791" font-weight="400" font-size="40" font-family="sans-serif" letter-spacing="0" word-spacing="0" transform="translate(0 -902.362)"><tspan x="200.643" y="939.791">H</tspan></text><path d="M215.929 39.643v16.786" fill="none" stroke="#000" stroke-width="2.116"/><path d="M215.929 94.286v16.785" fill="none" stroke="#000" stroke-width="2.116"/><path d="M235.357 78H257.5" fill="none" stroke="#000" stroke-width="2"/><text style="line-height:125%" x="262.571" y="995.005" font-weight="400" font-size="40" font-family="sans-serif" letter-spacing="0" word-spacing="0" transform="translate(0 -902.362)"><tspan x="262.571" y="995.005">H</tspan></text></svg>