<svg xmlns="http://www.w3.org/2000/svg" width="300" height="200">
  <g transform="translate(0 -852.362)">
    <path fill="none" stroke="#000" stroke-width="3" d="M19.698 872.05h262.135v161.624H19.698zM202.173 872.555l.505 159.604M102.173 872.555l.505 159.604M18.183 921.547h264.66M18.183 921.547h264.66M18.183 977.547h264.66"/>
    <circle cx="21.539" cy="872.828" r="8.334" fill="#f00000"/>
    <circle cx="21.539" cy="922.828" r="8.334" fill="#f00000"/>
    <circle cx="21.539" cy="978.828" r="8.334" fill="#f00000"/>
    <circle cx="21.539" cy="1032.828" r="8.334" fill="#f00000"/>
    <path fill="none" stroke="#00d400" stroke-width="3" d="M20.708 874.07l256.579-.505 1.01 48.487H18.687l1.516 50.003 261.63 4.546-2.526 54.043-257.589 2.525"/>
    <text x="8.081" y="858.413" font-family="sans-serif" font-size="40" font-weight="400" letter-spacing="0" style="line-height:125%" word-spacing="0"/>
  </g>
  <g fill="#f00000" transform="translate(0 -852.362)">
    <circle cx="281.539" cy="872.828" r="8.334"/>
    <circle cx="281.539" cy="922.828" r="8.334"/>
    <circle cx="281.539" cy="978.828" r="8.334"/>
    <circle cx="281.539" cy="1032.828" r="8.334"/>
    <circle cx="203.539" cy="872.828" r="8.334"/>
    <circle cx="203.539" cy="922.828" r="8.334"/>
    <circle cx="203.539" cy="978.828" r="8.334"/>
    <circle cx="203.539" cy="1032.828" r="8.334"/>
    <circle cx="103.539" cy="872.828" r="8.334"/>
    <circle cx="103.539" cy="922.828" r="8.334"/>
    <circle cx="103.539" cy="978.828" r="8.334"/>
    <circle cx="103.539" cy="1032.828" r="8.334"/>
    <circle cx="21.539" cy="872.828" r="8.334"/>
    <circle cx="21.539" cy="922.828" r="8.334"/>
    <circle cx="21.539" cy="978.828" r="8.334"/>
    <circle cx="21.539" cy="1032.828" r="8.334"/>
  </g>
</svg>