<svg xmlns="http://www.w3.org/2000/svg" width="300" height="200">
  <g transform="translate(0 -852.362)">
    <path fill="none" stroke="#000" stroke-width="3" d="M19.698 872.05h262.135v161.624H19.698zM220.173 872.555l.505 159.604M82.173 872.555l.505 159.604M18.183 921.547h264.66M18.183 921.547h264.66M18.183 977.547h264.66"/>
    <circle cx="21.539" cy="872.828" r="8.334" fill="#f00000"/>
    <circle cx="21.539" cy="922.828" r="8.334" fill="#f00000"/>
    <circle cx="21.539" cy="978.828" r="8.334" fill="#f00000"/>
    <circle cx="21.539" cy="1032.828" r="8.334" fill="#f00000"/>
    <text x="8.081" y="858.413" font-family="sans-serif" font-size="40" font-weight="400" letter-spacing="0" style="line-height:125%" word-spacing="0"/>
    <path fill="none" stroke="#000" stroke-width="3" d="M154.173 872.555l.505 159.604"/>
  </g>
  <circle cx="281.539" cy="872.828" r="8.334" fill="#f00000" transform="translate(0 -852.362)"/>
  <circle cx="281.539" cy="922.828" r="8.334" fill="#f00000" transform="translate(0 -852.362)"/>
  <circle cx="281.539" cy="978.828" r="8.334" fill="#f00000" transform="translate(0 -852.362)"/>
  <circle cx="281.539" cy="1032.828" r="8.334" fill="#f00000" transform="translate(0 -852.362)"/>
  <circle cx="221.539" cy="20.466" r="8.334" fill="#f00000"/>
  <circle cx="221.539" cy="70.466" r="8.334" fill="#f00000"/>
  <circle cx="221.539" cy="126.466" r="8.334" fill="#f00000"/>
  <circle cx="221.539" cy="180.466" r="8.334" fill="#f00000"/>
  <circle cx="83.539" cy="20.466" r="8.334" fill="#f00000"/>
  <circle cx="83.539" cy="70.466" r="8.334" fill="#f00000"/>
  <circle cx="83.539" cy="126.466" r="8.334" fill="#f00000"/>
  <circle cx="83.539" cy="180.466" r="8.334" fill="#f00000"/>
  <circle cx="21.539" cy="872.828" r="8.334" fill="#f00000" transform="translate(0 -852.362)"/>
  <circle cx="21.539" cy="922.828" r="8.334" fill="#f00000" transform="translate(0 -852.362)"/>
  <circle cx="21.539" cy="978.828" r="8.334" fill="#f00000" transform="translate(0 -852.362)"/>
  <circle cx="21.539" cy="1032.828" r="8.334" fill="#f00000" transform="translate(0 -852.362)"/>
  <circle cx="155.539" cy="20.466" r="8.334" fill="#f00000"/>
  <circle cx="155.539" cy="70.466" r="8.334" fill="#f00000"/>
  <circle cx="155.539" cy="126.466" r="8.334" fill="#f00000"/>
  <circle cx="155.539" cy="180.466" r="8.334" fill="#f00000"/>
  <path fill="none" stroke="#00d100" stroke-width="3" d="M20.708 18.678l261.63-.505-2.02 55.053L84.852 69.69l-1.515 59.6 196.98-3.031 1.01 55.053-263.145 1.01.505-165.16z"/>
</svg>