<svg xmlns="http://www.w3.org/2000/svg" width="400" height="400"><g transform="translate(0 -652.362)"><ellipse cx="160.394" cy="897.906" rx="131.058" ry="127.861" fill="none" stroke="#000" stroke-width="2" stroke-linecap="round" stroke-linejoin="round"/><ellipse ry="10.878" rx="11.15" cy="-771.939" cx="127.864" transform="scale(1 -1)"/><ellipse cx="233.587" cy="790.615" rx="11.15" ry="10.878"/><ellipse ry="10.878" rx="11.15" cy="882.999" cx="292.125"/><ellipse cx="315.012" cy="711.083" rx="11.15" ry="10.878"/><text style="line-height:125%" x="138.162" y="921.806" font-weight="400" font-size="40" font-family="sans-serif" letter-spacing="0" word-spacing="0"><tspan x="138.162" y="921.806" style="-inkscape-font-specification:'Latin Modern Roman, Italic'" font-style="italic" font-family="Latin Modern Roman">C</tspan></text><text style="line-height:125%" x="-21.935" y="753.503" font-weight="400" font-size="40" font-family="sans-serif" letter-spacing="0" word-spacing="0"/><text y="704.15" x="19.193" style="line-height:125%" font-weight="400" font-size="40" font-family="sans-serif" letter-spacing="0" word-spacing="0"><tspan style="-inkscape-font-specification:'Latin Modern Roman, Italic'" y="704.15" x="19.193" font-style="italic" font-family="Latin Modern Roman">G</tspan></text><text y="825.926" x="204.493" style="line-height:125%" font-weight="400" font-size="40" font-family="sans-serif" letter-spacing="0" word-spacing="0"><tspan style="-inkscape-font-specification:'Latin Modern Roman, Italic'" y="825.926" x="204.493" font-style="italic" font-family="Latin Modern Roman">y</tspan></text><text style="line-height:125%" x="81.341" y="758.073" font-weight="400" font-size="40" font-family="sans-serif" letter-spacing="0" word-spacing="0"><tspan x="81.341" y="758.073" style="-inkscape-font-specification:'Latin Modern Roman, Italic'" font-style="italic" font-family="Latin Modern Roman">y-</tspan></text><text y="892.258" x="304.897" style="line-height:125%" font-weight="400" font-size="40" font-family="sans-serif" letter-spacing="0" word-spacing="0"><tspan style="-inkscape-font-specification:'Latin Modern Roman, Italic'" y="892.258" x="304.897" font-style="italic" font-family="Latin Modern Roman">y<tspan font-size="27.5">+</tspan></tspan></text><text style="line-height:125%" x="330.369" y="728.846" font-weight="400" font-size="40" font-family="sans-serif" letter-spacing="0" word-spacing="0"><tspan x="330.369" y="728.846" style="-inkscape-font-specification:'Latin Modern Roman, Italic'" font-style="italic" font-family="Latin Modern Roman">x</tspan></text><path d="M235.883 794.507l71.734-75.612" fill="none" stroke="#000" stroke-width="2"/><path d="M314.34 722.835l-19.908 152.39M302.447 709.201l-168.026 53.64" fill="none" stroke="red" stroke-width="2" stroke-dasharray="6,6"/><ellipse transform="scale(1 -1)" cx="51.606" cy="-826.224" rx="11.15" ry="10.878"/><ellipse ry="10.878" rx="11.15" cy="-909.591" cx="30.28" transform="scale(1 -1)"/><ellipse transform="scale(1 -1)" cx="76.81" cy="-991.019" rx="11.15" ry="10.878"/><ellipse ry="10.878" rx="11.15" cy="-1023.332" cx="179.565" transform="scale(1 -1)"/><ellipse transform="scale(1 -1)" cx="271.979" cy="-965.169" rx="11.15" ry="10.878"/></g></svg>