<svg xmlns="http://www.w3.org/2000/svg" width="400" height="400">
  <path fill="none" stroke="#00d200" stroke-dasharray="6 6" stroke-width="2" d="M314.915 54.068c17.065 4.936 36.52 27.536 49.922 57.8 29.859 67.425 29.663 172.887-93.99 205.76m43.39-262.713c0-30-254.237-94.915-268.474 119.322"/>
  <g transform="translate(0 -652.362)">
    <ellipse cx="160.394" cy="897.906" fill="none" stroke="#000" stroke-linecap="round" stroke-linejoin="round" stroke-width="2" rx="131.058" ry="127.861"/>
    <ellipse cx="127.864" cy="-771.939" rx="11.15" ry="10.878" transform="scale(1 -1)"/>
    <ellipse cx="233.587" cy="790.615" rx="11.15" ry="10.878"/>
    <ellipse cx="315.012" cy="711.083" rx="11.15" ry="10.878"/>
    <text x="138.162" y="921.806" font-family="sans-serif" font-size="40" font-weight="400" letter-spacing="0" style="line-height:125%" word-spacing="0">
      <tspan x="138.162" y="921.806" font-family="Latin Modern Roman" font-style="italic" style="-inkscape-font-specification:'Latin Modern Roman, Italic'">C</tspan>
    </text>
    <text x="19.193" y="704.15" font-family="sans-serif" font-size="40" font-weight="400" letter-spacing="0" style="line-height:125%" word-spacing="0">
      <tspan x="19.193" y="704.15" font-family="Latin Modern Roman" font-style="italic" style="-inkscape-font-specification:'Latin Modern Roman, Italic'">G</tspan>
    </text>
    <text x="204.493" y="825.926" font-family="sans-serif" font-size="40" font-weight="400" letter-spacing="0" style="line-height:125%" word-spacing="0">
      <tspan x="204.493" y="825.926" font-family="Latin Modern Roman" font-style="italic" style="-inkscape-font-specification:'Latin Modern Roman, Italic'">y</tspan>
    </text>
    <text x="81.341" y="758.073" font-family="sans-serif" font-size="40" font-weight="400" letter-spacing="0" style="line-height:125%" word-spacing="0">
      <tspan x="81.341" y="758.073" font-family="Latin Modern Roman" font-style="italic" style="-inkscape-font-specification:'Latin Modern Roman, Italic'">y-</tspan>
    </text>
    <text x="304.897" y="892.258" font-family="sans-serif" font-size="40" font-weight="400" letter-spacing="0" style="line-height:125%" word-spacing="0">
      <tspan x="304.897" y="892.258" font-family="Latin Modern Roman" font-style="italic" style="-inkscape-font-specification:'Latin Modern Roman, Italic'">y<tspan font-size="27.5">+</tspan> </tspan>
    </text>
    <text x="330.369" y="728.846" font-family="sans-serif" font-size="40" font-weight="400" letter-spacing="0" style="line-height:125%" word-spacing="0">
      <tspan x="330.369" y="728.846" font-family="Latin Modern Roman" font-style="italic" style="-inkscape-font-specification:'Latin Modern Roman, Italic'">x</tspan>
    </text>
    <path fill="none" stroke="#000" stroke-width="2" d="M235.883 794.507l71.734-75.612"/>
    <ellipse cx="30.28" cy="-909.591" rx="11.15" ry="10.878" transform="scale(1 -1)"/>
    <ellipse cx="76.81" cy="-991.019" rx="11.15" ry="10.878" transform="scale(1 -1)"/>
    <ellipse cx="179.565" cy="-1023.332" rx="11.15" ry="10.878" transform="scale(1 -1)"/>
  </g>
  <ellipse cx="292.125" cy="882.999" rx="11.15" ry="10.878" transform="translate(0 -652.362)"/>
  <ellipse cx="51.606" cy="-826.224" rx="11.15" ry="10.878" transform="matrix(1 0 0 -1 0 -652.362)"/>
  <ellipse cx="271.979" cy="-965.169" rx="11.15" ry="10.878" transform="matrix(1 0 0 -1 0 -652.362)"/>
</svg>