<svg xmlns="http://www.w3.org/2000/svg" width="280" height="240">
  <g font-family="sans-serif" font-size="40" font-weight="400" letter-spacing="0" word-spacing="0">
    <text x="-21.935" y="753.503" style="line-height:125%" transform="translate(0 -812.362)"/>
    <text x="21.717" y="854.02" style="line-height:125%" transform="translate(0 -812.362)">
      <tspan x="21.717" y="854.02" font-family="Latin Modern Roman" font-style="italic" style="-inkscape-font-specification:'Latin Modern Roman, Italic'">T<tspan fill="red">&apos;</tspan></tspan>
    </text>
    <text x="227.877" y="908.498" style="line-height:125%" transform="translate(0 -812.362)">
      <tspan x="227.877" y="908.498" font-family="Latin Modern Roman" font-size="25" font-style="italic" style="-inkscape-font-specification:'Latin Modern Roman, Italic'">v<tspan baseline-shift="sub" font-size="65%">1</tspan></tspan>
    </text>
    <text x="128.955" y="851.997" style="line-height:125%" transform="translate(0 -812.362)">
      <tspan x="128.955" y="851.997" font-family="Latin Modern Roman" font-size="25" font-style="italic" style="-inkscape-font-specification:'Latin Modern Roman, Italic'">x</tspan>
    </text>
    <text x="227.648" y="988.673" style="line-height:125%" transform="translate(0 -812.362)">
      <tspan x="227.648" y="988.673" font-family="Latin Modern Roman" font-size="25" font-style="italic" style="-inkscape-font-specification:'Latin Modern Roman, Italic'">v<tspan baseline-shift="sub" font-size="65%">2</tspan></tspan>
    </text>
    <text x="18.925" y="908.27" style="line-height:125%" transform="translate(0 -812.362)">
      <tspan x="18.925" y="908.27" font-family="Latin Modern Roman" font-size="25" font-style="italic" style="-inkscape-font-specification:'Latin Modern Roman, Italic'">v<tspan baseline-shift="sub" font-size="65%">5</tspan></tspan>
    </text>
    <text x="20.981" y="988.673" style="line-height:125%" transform="translate(0 -812.362)">
      <tspan x="20.981" y="988.673" font-family="Latin Modern Roman" font-size="25" font-style="italic" style="-inkscape-font-specification:'Latin Modern Roman, Italic'">v<tspan baseline-shift="sub" font-size="65%">4</tspan></tspan>
    </text>
    <text x="138.128" y="968.712" style="line-height:125%" transform="translate(0 -812.362)">
      <tspan x="138.128" y="968.712" font-family="Latin Modern Roman" font-size="25" font-style="italic" style="-inkscape-font-specification:'Latin Modern Roman, Italic'">v<tspan baseline-shift="sub" font-size="65%">6</tspan></tspan>
    </text>
    <text x="147.496" y="1038.588" style="line-height:125%" transform="translate(0 -812.362)">
      <tspan x="147.496" y="1038.588" font-family="Latin Modern Roman" font-size="25" font-style="italic" style="-inkscape-font-specification:'Latin Modern Roman, Italic'">v<tspan baseline-shift="sub" font-size="65%">3</tspan></tspan>
    </text>
  </g>
  <g fill="none" stroke="#000" stroke-width="2">
    <path d="M216.707 172.353v-80l-80-40M56.707 92.353l80 40M136.707 52.353l-80 40v80M136.707 132.353v80"/>
  </g>
  <g fill="none" stroke="red" stroke-width="2">
    <path stroke-dasharray="2 6" d="M136.707 52.353l-.409 80.308M56.707 172.353l80-40"/>
    <path stroke-dasharray="2 8" d="M216.707 92.353l-80 40"/>
    <path stroke-dasharray="2 6" d="M216.707 172.353l-80-40M55 175l80 40M215 175l-75 40"/>
  </g>
  <g transform="translate(0 -812.362)">
    <ellipse cx="56.075" cy="984.998" rx="9.857" ry="9.617"/>
    <ellipse cx="216.992" cy="984.998" rx="9.857" ry="9.617"/>
    <ellipse cx="56.075" cy="904.998" rx="9.857" ry="9.617"/>
    <ellipse cx="216.992" cy="904.998" rx="9.857" ry="9.617"/>
    <ellipse cx="136.21" cy="864.998" rx="9.857" ry="9.617"/>
    <ellipse cx="136.21" cy="1024.998" rx="9.857" ry="9.617"/>
    <ellipse cx="136.21" cy="944.998" rx="9.857" ry="9.617"/>
  </g>
</svg>